<?xml version="1.0" encoding="utf-8"?>
<!-- Generator: Adobe Illustrator 27.6.1, SVG Export Plug-In . SVG Version: 6.00 Build 0)  -->
<svg version="1.1" xmlns="http://www.w3.org/2000/svg" xmlns:xlink="http://www.w3.org/1999/xlink" x="0px" y="0px"
	 viewBox="0 0 700 240.4" style="enable-background:new 0 0 700 240.4;" xml:space="preserve">
<style type="text/css">
	.st0{display:none;}
	.st1{display:inline;fill:none;}
	.st2{display:inline;fill:#4154FF;}
	.st3{font-family:'PaytoneOne-Regular';}
	.st4{font-size:150px;}
	.st5{letter-spacing:6;}
	.st6{fill:#4154FF;}
	.st7{fill:none;stroke:#4154FF;stroke-width:10;stroke-miterlimit:10;}
</style>
<g id="Layer_1" class="st0">
	<rect y="86.4" class="st1" width="1155" height="367"/>
	<text transform="matrix(1 0 0 1.5 0 189.8984)" class="st2 st3 st4 st5">CATALOG</text>
</g>
<g id="Layer_1_copy">
	<path class="st6" d="M65.2,179.9c-10.8,1-20.4-1.3-29.1-7.1c-8.6-5.7-15.7-14.3-21.3-25.7c-5.6-11.4-9.1-24.9-10.6-40.6
		C2.8,90.5,3.7,76,7.2,63.2c3.5-12.8,8.9-23.2,16.3-31c7.4-7.9,16.4-12.3,27-13.3c11.7-1.1,21.3,1.4,28.6,7.7l-0.6,36
		c-3.1-1.8-6.2-3.1-9.5-3.7c-3.2-0.7-6.2-0.9-9-0.6c-8.2,0.8-14.2,5-18.2,12.8c-4,7.8-5.4,18.1-4.1,31.1c1.2,12.2,4.3,21.6,9.5,28.1
		c5.2,6.5,11.8,9.4,19.9,8.6c3.2-0.3,6.1-1,8.6-2.2c2.6-1.1,5.7-3.1,9.3-5.9l7.5,35C84.5,174.3,75.5,179,65.2,179.9z"/>
	<path class="st6" d="M95.2,189.9l28.5-154.8h48.6l29.8,154.8h-36.8l-3.9-29.7h-26.7l-4.4,29.7H95.2z M138,132.5h19.9l-9.8-67.7
		L138,132.5z"/>
	<path class="st6" d="M225,199.9V80.6h-23.2V45.1h81.4v35.5h-23.2v119.2H225z"/>
	<path class="st6" d="M283.3,189.9l28.5-154.8h48.6l29.8,154.8h-36.8l-3.9-29.7h-26.7l-4.4,29.7H283.3z M326.1,132.5H346l-9.8-67.7
		L326.1,132.5z"/>
	<path class="st6" d="M402.1,178.8l4.6-154.7l32.4,1l-3.5,119.2l36.6,1.1l-2.5,35.5L402.1,178.8z"/>
	<path class="st6" d="M538.2,193.5c-10.9,0-20.5-3.5-28.8-10.4c-8.3-6.9-14.8-16.4-19.4-28.6c-4.6-12.1-7-26.1-7-41.8
		c0-15.9,2.3-29.9,7-42.1s11.1-21.7,19.4-28.6c8.3-6.9,17.9-10.3,28.8-10.3c10.9,0,20.5,3.4,28.8,10.2c8.3,6.8,14.8,16.3,19.4,28.5
		c4.6,12.1,7,26.3,7,42.3c0,15.8-2.3,29.7-7,41.8c-4.7,12.2-11.1,21.7-19.4,28.6C558.7,190,549.1,193.5,538.2,193.5z M538.2,152.5
		c6.3,0,11.5-3.7,15.5-11c4-7.3,6.1-17,6.1-29c0-8.1-0.9-15.2-2.8-21.4c-1.9-6.1-4.4-11-7.6-14.5c-3.3-3.5-7-5.3-11.3-5.3
		c-6.3,0-11.5,3.8-15.5,11.4c-4,7.6-6,17.5-6,29.8c0,12,2,21.7,6,29C526.6,148.9,531.8,152.5,538.2,152.5z"/>
	<path class="st6" d="M656.2,175.9c-10.8-0.6-20-4.4-27.6-11.4c-7.6-7-13.3-16.5-17.1-28.4c-3.8-11.9-5.3-25.5-4.5-40.8
		c0.9-16.3,3.9-30.7,9.2-43c5.3-12.3,12.2-21.9,20.9-28.6c8.7-6.8,18.5-9.8,29.5-9.3c12,0.6,21.3,4.7,28,12.3l-6.3,35
		c-6.1-4.4-12.5-6.7-19.3-7.1c-8.2-0.4-14.8,2.9-19.9,10c-5.1,7.1-8,17.2-8.6,30.2c-0.7,13.2,0.9,23.6,4.8,31.1
		c3.9,7.6,9.1,11.5,15.7,11.9c2.4,0.1,4.4-0.1,6-0.6l2-38.4l26.2-3.1l-3.7,70.3c-5.9,3.6-11.8,6.2-17.8,7.9
		C667.6,175.5,661.8,176.2,656.2,175.9z"/>
	<line class="st7" x1="28" y1="233.9" x2="667" y2="233.9"/>
</g>
</svg>
