<?xml version="1.0" encoding="utf-8"?>
<!-- Generator: Adobe Illustrator 27.6.1, SVG Export Plug-In . SVG Version: 6.00 Build 0)  -->
<svg version="1.1" xmlns="http://www.w3.org/2000/svg" xmlns:xlink="http://www.w3.org/1999/xlink" x="0px" y="0px"
	 viewBox="0 0 1366 768" style="enable-background:new 0 0 1366 768;" xml:space="preserve">
<style type="text/css">
	.st0{display:none;}
	.st1{display:inline;}
	.st2{fill:#FF1549;}
	.st3{fill:#4154FF;}
</style>
<g id="Layer_1" class="st0">
	<g id="Layer_2_00000024703128828670339040000008662634483824694913_">
		
			<image style="display:inline;overflow:visible;enable-background:new    ;" width="964" height="278" xlink:href="7A512155.png"  transform="matrix(0.5184 0 0 0.5184 140 59.8428)">
		</image>
	</g>
	<g id="Layer_1_00000119812584946905695250000003229265908144843179_" class="st1">
		<path class="st2" d="M168.5,184.4l-8.6-102.8l16.8-1.4l3.2,38.7l15.9-1.3l-3.2-38.7l16.9-1.4l8.6,102.8l-16.9,1.4l-3.4-40.5
			l-15.9,1.3l3.4,40.5L168.5,184.4z"/>
		<path class="st2" d="M226.2,187.5V84.3h36.2v22.8h-18v18.3h16.4v18.9h-16.4v19.6h18v23.6H226.2z"/>
		<path class="st2" d="M311.2,189.9c-19-1.8-17.5-27-19.1-42h-3.5v39.6h-16.4V84.3c11.2,0.7,33-3.4,39,8.6
			c7.8,12.9,8.5,39.6-4.7,50.8c1,7.1,0.5,23.4,11,18.8l0.9,24.6C316.2,188.7,314,189.9,311.2,189.9z M288.6,127.3
			c8.2,0.6,13.4-1.7,13-10.9c0.6-9.2-5.6-10.4-13-9.8V127.3z"/>
		<path class="st2" d="M330.3,188.8L321.6,86l36.1-3.1l1.9,22.7l-17.9,1.5l1.5,18.2l16.4-1.4l1.6,18.8l-16.4,1.4l1.7,19.6l17.9-1.5
			l2,23.5L330.3,188.8z"/>
		<path class="st2" d="M417.8,202.5l-19-24.9c-36.6,0.6-35.2-81.4-16-100.7c15.5-16.9,34.7-0.1,38.5,18.9
			c5.7,20.9,5.1,51.1-6.1,70.5l14,18.3L417.8,202.5z M397.2,150.6c14.6-1.3,14.9-52.1-0.1-54.2C382.7,97.8,382.4,149.3,397.2,150.6z
			"/>
		<path class="st2" d="M458.1,189.9c-37.8-3.5-21.9-79.8-25.2-105.6h16.6v59c0.4,9.3,0.6,18.1,8.9,19.5c15.3,2.1,6.4-69.3,8.6-78.4
			h16.9C480.6,110.8,496.5,185.3,458.1,189.9z"/>
		<path class="st2" d="M491.5,186.5l5.1-103.1l36.2,1.8l-1.1,22.8l-18-0.9l-0.9,18.3l16.4,0.8l-0.9,18.9l-16.4-0.8l-1,19.6l18,0.9
			l-1.2,23.5L491.5,186.5z"/>
		<path class="st2" d="M555.8,202.9c-6.4,0.1-13.7-3.6-17.8-8.6l2.7-24.4c7.2,9.9,27.4,10.9,19.5-4.4c-8-6-18-9.7-20.5-21.1
			c-3.5-13.7-2.4-35.2,8.4-45c7.8-7.3,21.4-4.6,26.9,4.3l-2.5,22c-7.6-8.2-24.5-8.6-17.3,5.2c4.8,4.6,11.8,6.8,16,12.8
			C582.2,159.7,579.7,202.6,555.8,202.9z"/>
		<path class="st2" d="M593.4,187.5V108h-11.6V84.3h40.7V108h-11.6v79.5H593.4z"/>
	</g>
</g>
<g id="Layer_2">
	<path class="st3" d="M169.1,184l-7.8-102.9l16.8-1.3l2.9,38.7l15.9-1.2l-2.9-38.7l16.9-1.3l7.8,102.9l-16.9,1.3l-3.1-40.5
		l-15.9,1.2l3.1,40.5L169.1,184z"/>
	<path class="st3" d="M226.2,187.3V84.1h36.2v22.8h-18v18.3h16.4v18.9h-16.4v19.7h18v23.5H226.2z"/>
	<path class="st3" d="M311.3,189.7c-3.6,0-6.6-1.1-8.9-3.2c-2.4-2.1-4.2-5.1-5.6-8.9c-1.4-3.8-2.5-8.2-3.1-13.3
		c-0.7-5.1-1.2-10.6-1.4-16.5h-3.5v39.6h-16.4V84.1h21.2c8.2,0,14.1,2.9,17.7,8.6c3.6,5.8,5.4,13.5,5.4,23.3
		c0,5.9-0.8,11.2-2.4,15.8c-1.6,4.6-4.2,8.5-7.7,11.6c0.2,2.2,0.4,4,0.5,5.4c0.2,1.4,0.4,3,0.7,4.7c0.6,3.6,1.5,6.1,2.4,7.5
		c1,1.4,2.3,2.1,4,2.1c1.1,0,2.2-0.3,3.3-0.9l0.9,24.6c-1,0.8-2.1,1.5-3.2,2C314,189.4,312.7,189.7,311.3,189.7z M288.6,127.1h2.9
		c3.7,0,6.3-0.8,7.8-2.5c1.5-1.7,2.3-4.5,2.3-8.5c0-3.4-0.6-5.9-1.9-7.4c-1.3-1.5-3.2-2.3-5.9-2.3h-5.2V127.1z"/>
	<path class="st3" d="M330.6,188.7l-9.3-102.8l36.1-3.3l2.1,22.7l-17.9,1.6l1.7,18.2l16.4-1.5l1.7,18.8l-16.4,1.5l1.8,19.6l17.9-1.6
		l2.1,23.5L330.6,188.7z"/>
	<path class="st3" d="M417.8,203.3l-19-24.9c-0.6,0.2-1.2,0.3-1.6,0.3c-5.4,0-10.2-2.3-14.3-6.9c-4.2-4.6-7.4-11-9.7-19
		c-2.3-8.1-3.5-17.4-3.5-27.9c0-10.6,1.2-20,3.5-28s5.6-14.4,9.7-19c4.1-4.6,8.9-6.9,14.4-6.9c5.4,0,10.2,2.3,14.4,6.8
		c4.1,4.6,7.4,10.9,9.7,19c2.3,8.1,3.5,17.5,3.5,28.2c0,8.2-0.8,16-2.4,23.3c-1.6,7.3-4,13.7-7.2,19l14,18.3L417.8,203.3z
		 M397.3,151.4c3.2,0,5.7-2.4,7.8-7.3c2-4.9,3-11.3,3-19.3c0-5.4-0.5-10.1-1.4-14.2c-0.9-4.1-2.2-7.3-3.8-9.7
		c-1.6-2.3-3.5-3.5-5.7-3.5c-3.1,0-5.7,2.5-7.7,7.6c-2,5.1-3,11.7-3,19.9c0,8,1,14.5,3,19.3C391.5,148.9,394.1,151.4,397.3,151.4z"
		/>
	<path class="st3" d="M458.1,189.7c-5,0-9.4-1.8-13.2-5.4c-3.8-3.6-6.8-8.8-8.9-15.5s-3.1-14.8-3.1-24.2V84.1h16.6v59
		c0,6.7,0.8,11.6,2.4,14.8c1.6,3.1,3.8,4.7,6.4,4.7c2.8,0,4.9-1.6,6.4-4.8c1.5-3.2,2.2-7.6,2.2-13.2V84.1h16.9v60.5
		c0,8.9-1.1,16.8-3.3,23.5c-2.2,6.8-5.2,12.1-9.1,15.9C467.6,187.8,463.2,189.7,458.1,189.7z"/>
	<path class="st3" d="M489.9,185.6l8.6-102.8l36.1,3l-1.9,22.7l-17.9-1.5l-1.5,18.2l16.4,1.4l-1.6,18.8l-16.4-1.4l-1.6,19.6
		l17.9,1.5l-2,23.5L489.9,185.6z"/>
	<path class="st3" d="M555.8,202.7c-3.1,0-6.4-0.8-9.6-2.3c-3.3-1.5-6-3.6-8.2-6.2l2.7-24.4c2.9,3.1,5.6,5.1,8.1,6.1
		c2.5,1,4.9,1.4,7,1.4c2,0,3.5-0.6,4.5-2c1-1.3,1.5-3,1.5-5.2c0-2-0.6-3.6-1.7-4.7c-1.2-1.1-2.6-2.2-4.5-3.2c-1.8-1-3.8-2.2-5.8-3.5
		c-2.1-1.3-4-3.1-5.8-5.4c-1.8-2.2-3.3-5.2-4.5-9c-1.2-3.8-1.7-8.5-1.7-14.2c0-7.2,0.9-13.4,2.6-18.7c1.7-5.2,4.2-9.3,7.5-12.1
		c3.2-2.9,7.1-4.3,11.5-4.3c2.9,0,5.8,0.8,8.7,2.3c2.8,1.6,5.1,3.6,6.8,6.2l-2.5,22.1c-2.6-2.1-4.8-3.6-6.9-4.6
		c-2-0.9-3.9-1.4-5.7-1.4c-2.1,0-3.7,0.6-4.8,1.8c-1.1,1.2-1.6,2.8-1.6,4.8c0,1.9,0.6,3.5,1.7,4.7c1.1,1.2,2.6,2.4,4.4,3.4
		c1.8,1.1,3.7,2.4,5.8,3.8c2,1.4,4,3.3,5.8,5.6c1.8,2.3,3.3,5.3,4.4,9c1.1,3.7,1.7,8.4,1.7,13.9c0,11.6-1.9,20.6-5.7,26.9
		C567.8,199.5,562.5,202.7,555.8,202.7z"/>
	<path class="st3" d="M593.4,187.3v-79.5h-11.6V84.1h40.7v23.7h-11.6v79.5H593.4z"/>
</g>
</svg>
