<svg width="260" height="410" viewBox="0 0 260 410" fill="none" xmlns="http://www.w3.org/2000/svg">
<g filter="url(#filter0_d_921_187245)">
<path d="M138.721 14.9719C157.347 15.7817 177.08 17.4447 193.94 26.2965C206.794 33.0454 216.079 42.4503 223.875 54.5641C234.866 71.6421 242.816 93.5342 244.681 113.777C247.684 146.366 230.396 171.449 199.909 182.471C179.803 189.74 156.355 185.749 141.706 169.39C123.875 149.479 125.154 117.823 147.851 102.057C160.069 93.5704 173.546 96.5171 178.182 110.748C183.39 126.734 177.253 145.733 170.149 160.085C157.578 185.481 137.2 199.011 112.034 210.387C93.2739 218.867 73.3498 225.292 55.1477 234.967C40.0495 242.993 27.9992 256.969 20.296 272.102C8.19794 295.868 15.7269 331.294 39.5215 345.053C46.6173 349.156 57.668 354.227 65.1555 357.08C76.5811 361.433 88.5139 363.399 100.051 367.263C111.495 371.097 119.468 377.49 124.412 388.508C126.988 394.249 125.871 395.328 132.401 395.794" stroke="#EFCE1E" stroke-width="8" stroke-linecap="round" shape-rendering="crispEdges"/>
</g>
<defs>
<filter id="filter0_d_921_187245" x="0.600586" y="0.971924" width="258.416" height="408.823" filterUnits="userSpaceOnUse" color-interpolation-filters="sRGB">
<feFlood flood-opacity="0" result="BackgroundImageFix"/>
<feColorMatrix in="SourceAlpha" type="matrix" values="0 0 0 0 0 0 0 0 0 0 0 0 0 0 0 0 0 0 127 0" result="hardAlpha"/>
<feOffset/>
<feGaussianBlur stdDeviation="5"/>
<feComposite in2="hardAlpha" operator="out"/>
<feColorMatrix type="matrix" values="0 0 0 0 0.913725 0 0 0 0 0.294118 0 0 0 0 0.160784 0 0 0 1 0"/>
<feBlend mode="normal" in2="BackgroundImageFix" result="effect1_dropShadow_921_187245"/>
<feBlend mode="normal" in="SourceGraphic" in2="effect1_dropShadow_921_187245" result="shape"/>
</filter>
</defs>
</svg>
