<svg width="429" height="409" viewBox="0 0 429 409" fill="none" xmlns="http://www.w3.org/2000/svg">
<g filter="url(#filter0_d_925_94125)">
<path d="M406.457 11.8032C407.884 17.8719 408.465 24.512 408.731 30.7009C409.301 43.9475 409.606 57.2881 409.606 70.5521C409.606 87.2593 411.612 105.579 406.675 121.689C402.669 134.763 397.363 148.168 390.796 160.185C385.558 169.769 377.748 178.254 370.805 186.606C355.726 204.745 341.445 223.637 321.636 236.956C302.205 250.022 280.873 259.393 260.656 270.946C242.421 281.366 223.719 293.7 211.137 310.666C197.736 328.737 197.242 350.465 199.064 372.127C199.454 376.773 199.121 381.741 203.482 384.332C209.383 387.837 214.629 388.297 221.417 388.575C227.36 388.818 233.372 388.691 239.309 389.056C246.954 389.527 254.787 390.791 262.45 390.543C268.796 390.339 275.629 387.416 281.653 385.644C293.05 382.292 302.243 373.092 311.137 365.565C322.254 356.159 335.476 348.489 344.077 336.475C356.691 318.855 357.999 299.728 356.85 278.645C356.179 266.32 353.092 254.098 349.764 242.249C348.418 237.46 346.511 232.468 343.814 228.251C332.233 210.136 319.395 191.563 301.47 179.082C278.839 163.326 251.976 148.647 223.517 152.661C207.52 154.917 191.445 157.091 175.573 160.097C160.308 162.988 145.686 168.503 130.516 171.908C126.399 172.833 121.782 173.133 117.568 173.133C114.931 173.133 111.369 169.701 109.256 168.409C98.4747 161.815 89.3587 156.56 80.3848 147.586C67.9541 135.156 59.2533 118.285 49.7636 103.754C41.5436 91.1673 33.4615 78.8366 26.579 65.434C23.9569 60.3278 20.5185 55.638 18.2676 50.3859" stroke="#EFCE1E" stroke-width="8" stroke-linecap="round" shape-rendering="crispEdges"/>
</g>
<defs>
<filter id="filter0_d_925_94125" x="0.266602" y="-6.19775" width="427.743" height="414.773" filterUnits="userSpaceOnUse" color-interpolation-filters="sRGB">
<feFlood flood-opacity="0" result="BackgroundImageFix"/>
<feColorMatrix in="SourceAlpha" type="matrix" values="0 0 0 0 0 0 0 0 0 0 0 0 0 0 0 0 0 0 127 0" result="hardAlpha"/>
<feOffset/>
<feGaussianBlur stdDeviation="7"/>
<feComposite in2="hardAlpha" operator="out"/>
<feColorMatrix type="matrix" values="0 0 0 0 0.913725 0 0 0 0 0.294118 0 0 0 0 0.160784 0 0 0 1 0"/>
<feBlend mode="normal" in2="BackgroundImageFix" result="effect1_dropShadow_925_94125"/>
<feBlend mode="normal" in="SourceGraphic" in2="effect1_dropShadow_925_94125" result="shape"/>
</filter>
</defs>
</svg>
