<svg width="418" height="340" viewBox="0 0 418 340" fill="none" xmlns="http://www.w3.org/2000/svg">
<g filter="url(#filter0_d_920_136077)">
<path d="M401.127 239.448C391.436 243.082 378.976 240.29 369.668 237.376C351.661 231.738 333.181 225.701 320.455 211.333C316.939 207.363 314.083 201.643 311.46 197.346C302.96 183.419 294.455 169.496 285.794 155.668C274.468 137.585 266.483 117.345 258.056 97.7896C252.508 84.9165 247.836 70.7315 240.443 58.7959C237.473 54.002 232.214 49.7951 227.916 46.5045C212.578 34.7617 195 24.6149 176.207 19.661C154.611 13.9684 130.2 16.8943 108.298 18.0127C103.599 18.2526 97.7967 18.0512 93.1334 19.5668C71.9955 26.4366 56.1121 54.5429 44.6739 71.1345C35.1747 84.9135 20.2124 103.782 16.9357 121.336C15.6944 127.986 16.1382 136.496 16.5118 143.282C17.2307 156.341 24.1948 168.978 29.0859 180.769C32.3051 188.53 36.0662 195.939 40.9535 202.809C44.8402 208.272 49.0655 213.511 53.8101 218.255C60.7672 225.213 71.986 228.446 80.7006 232.195C92.9406 237.461 108.913 242.107 120.071 249.761C131.436 257.557 139.384 267.686 145.784 279.76C150.405 288.478 149.542 288.805 143.335 296.054C135.372 305.355 127.224 314.991 118.847 323.369" stroke="#EFCE1E" stroke-width="8" stroke-linecap="round"/>
</g>
<defs>
<filter id="filter0_d_920_136077" x="0.118164" y="0.262939" width="417.01" height="339.106" filterUnits="userSpaceOnUse" color-interpolation-filters="sRGB">
<feFlood flood-opacity="0" result="BackgroundImageFix"/>
<feColorMatrix in="SourceAlpha" type="matrix" values="0 0 0 0 0 0 0 0 0 0 0 0 0 0 0 0 0 0 127 0" result="hardAlpha"/>
<feOffset/>
<feGaussianBlur stdDeviation="6"/>
<feComposite in2="hardAlpha" operator="out"/>
<feColorMatrix type="matrix" values="0 0 0 0 0.913725 0 0 0 0 0.294118 0 0 0 0 0.160784 0 0 0 1 0"/>
<feBlend mode="normal" in2="BackgroundImageFix" result="effect1_dropShadow_920_136077"/>
<feBlend mode="normal" in="SourceGraphic" in2="effect1_dropShadow_920_136077" result="shape"/>
</filter>
</defs>
</svg>
