<svg width="542" height="497" viewBox="0 0 542 497" fill="none" xmlns="http://www.w3.org/2000/svg">
<g filter="url(#filter0_d_1213_65370)">
<path d="M36.7017 48.8944C36.7017 53.5824 38.7022 56.874 40.4498 61.2094C46.9074 77.2291 59.2474 89.4537 68.3371 103.821C85.3052 130.642 106.447 155.763 134.24 171.956C164.531 189.603 195.769 197.329 230.708 198.237C242.02 198.53 256.404 200.469 267.341 197.032C272.658 195.361 275.538 185.806 276.488 181.058C278.255 172.224 277.151 163.723 272.829 156.16C269.753 150.777 248.47 165.371 246.325 166.958C233.986 176.086 228.002 193.053 228.745 207.919C229.626 225.545 240.492 242.484 253.375 254.011C260.446 260.338 268.847 265.159 277.291 269.405C280.318 270.927 283.78 272.975 287.286 272.975C294.429 272.975 302.841 269.174 308.525 265.121C318.459 258.038 320.29 241.239 321.732 230.318C323.533 216.682 321.745 203.063 324.276 189.491C327.08 174.448 332.457 160.135 339.045 146.344C345.978 131.83 353.928 112.948 367.423 103.241C377.844 95.7453 394.931 98.0942 407.09 98.7792C417.74 99.3792 421.805 106.348 426.633 114.932C429.771 120.509 433.246 126.849 434.709 133.136C437.249 144.049 436.377 157.183 435.156 168.207C432.818 189.318 428.6 210.422 425.607 231.478C422.464 253.588 416.823 275.553 410.258 296.891C406.995 307.493 405.251 315.804 397.943 324.466C391.94 331.58 382.192 341.018 372.42 342.224C357.968 344.008 342.49 343.22 327.979 342.67C306.243 341.847 284.565 337.907 263.281 333.613C248.388 330.608 231.052 326.369 218.661 317.148C209.948 310.664 201.556 304.335 193.763 296.712C178.736 282.012 162.454 269.467 145.663 256.956C136.186 249.895 127.364 244.061 115.411 244.061C104.977 244.061 84.6672 247.102 83.2847 260.927C83.0989 262.785 81.7527 264.802 81.0537 266.549C80.3997 268.184 80.8752 270.909 80.8752 272.662C80.8752 278.968 79.4963 287.221 81.4999 293.232C82.4736 296.153 84.4911 299.257 86.8543 301.263C94.0002 307.331 100.596 313.915 108.495 319.067C118.024 325.281 127.698 330.02 138.301 334.059C148.232 337.842 157.488 342.966 167.17 347.222C174.007 350.227 181.731 355.379 186.535 361.143C190.571 365.986 190.104 371.907 190.104 377.831C190.104 388.083 194.103 397.473 196.44 407.324C198.562 416.267 202.017 423.519 206.167 431.821C212.736 444.957 225.997 462.09 241.595 464.527C246.318 465.265 251.194 464.928 255.963 464.928C259.553 464.928 260.629 462.616 263.548 460.913C275.296 454.06 274.319 445.459 276.22 434.052C277.389 427.038 279.683 417.957 284.163 412.233C286.916 408.715 290.056 405.61 292.908 402.282C295.07 399.76 299.022 398.389 301.564 396.036C305.695 392.211 314.239 393.448 319.368 393.448C321.698 393.448 324.09 393.32 326.417 393.492C331.331 393.856 335.684 396.951 340.294 397.463C343.317 397.799 346.382 401.635 347.523 404.201C348.374 406.117 352.231 411.434 353.948 412.545C356.133 413.959 358.055 416.831 359.971 418.747C361.497 420.273 363.412 419.952 365.415 419.952C371.039 419.952 376.711 420.338 382.237 419.149C400.012 415.324 417.705 412.896 433.549 403.71C443.6 397.884 453.841 392.991 462.731 385.372C468.645 380.302 472.501 372.502 476.206 365.783C482.857 353.722 487.034 340.908 491.644 328.035C495.083 318.432 499.697 308.953 502.13 299.032C504.979 287.417 507.299 276.421 508.778 264.586C509.622 257.833 509.76 251.342 509.76 244.552C509.76 241.155 508.324 238.127 508.153 235.226C507.914 231.156 504.904 227.506 504.182 223.536C502.965 216.838 500.593 209.994 498.694 203.279C492.233 180.433 483.927 158.318 479.195 135.055C474.894 113.907 471.38 93.9419 458.269 75.9339C455.008 71.4551 451.313 63.2291 445.775 60.9417C440.321 58.689 434.785 56.6831 429.132 54.9627C424.324 53.4992 419.619 53.7133 414.631 53.7133C403.602 53.7133 393.068 53.4186 382.371 56.5243C372.978 59.2513 364.03 63.898 355.063 67.8131C345.683 71.9088 335.942 78.4868 326.016 80.8421C319.687 82.3437 310.259 83.0722 303.795 81.6452C298.442 80.4634 294.387 74.6723 290.856 70.9365C285.167 64.9183 279.94 58.2622 273.766 52.7317C267.755 47.3465 260.777 44.1142 253.553 41.4875C248.905 39.7972 244.733 39.2565 239.855 39.2565C230.22 39.2565 216.993 37.1611 208.845 43.2723C204.189 46.7639 199.046 49.4084 194.477 53.0886C189.335 57.2306 186.163 64.9056 182.43 70.2226C178.943 75.1889 176.026 82.2643 171.275 86.1518C169.939 87.2447 166.46 86.8674 164.76 87.2673C158.304 88.7865 148.526 82.5843 142.807 80.5744C136.498 78.3568 129.671 76.6039 124.022 72.8998C118.343 69.1755 113.714 63.8754 108.584 59.4692C97.3142 49.7887 86.2665 39.4736 72.3083 34.0806C66.8285 31.9635 64.4206 31.6629 59.1454 34.0806C56.5393 35.2751 48.537 38.3465 46.9643 40.8628C44.1268 45.4028 34.5805 43.499 31.8828 48.8944" stroke="#FFCA7A" stroke-width="7" stroke-linecap="round" shape-rendering="crispEdges"/>
</g>
<defs>
<filter id="filter0_d_1213_65370" x="0.302813" y="0.798174" width="541.039" height="495.787" filterUnits="userSpaceOnUse" color-interpolation-filters="sRGB">
<feFlood flood-opacity="0" result="BackgroundImageFix"/>
<feColorMatrix in="SourceAlpha" type="matrix" values="0 0 0 0 0 0 0 0 0 0 0 0 0 0 0 0 0 0 127 0" result="hardAlpha"/>
<feOffset/>
<feGaussianBlur stdDeviation="14.04"/>
<feComposite in2="hardAlpha" operator="out"/>
<feColorMatrix type="matrix" values="0 0 0 0 0.913725 0 0 0 0 0.294118 0 0 0 0 0.160784 0 0 0 1 0"/>
<feBlend mode="normal" in2="BackgroundImageFix" result="effect1_dropShadow_1213_65370"/>
<feBlend mode="normal" in="SourceGraphic" in2="effect1_dropShadow_1213_65370" result="shape"/>
</filter>
</defs>
</svg>
