<?xml version="1.0" encoding="utf-8"?>
<!-- Generator: Adobe Illustrator 27.6.1, SVG Export Plug-In . SVG Version: 6.00 Build 0)  -->
<svg version="1.1" id="Layer_4" xmlns="http://www.w3.org/2000/svg" xmlns:xlink="http://www.w3.org/1999/xlink" x="0px" y="0px"
	 viewBox="0 0 79.18 297.16" style="enable-background:new 0 0 79.18 297.16;" xml:space="preserve">
<style type="text/css">
	.st0{fill:#FFFFFF;}
</style>
<path class="st0" d="M79.18,75.33H50.22C22.49,75.33,0,52.85,0,25.11V0h79.18V75.33z"/>
<path class="st0" d="M79.18,147.7H50.22C22.49,147.7,0,125.22,0,97.48V72.37h79.18V147.7z"/>
<path class="st0" d="M79.18,220.07H50.22C22.49,220.07,0,197.58,0,169.85v-25.11h79.18V220.07z"/>
<path class="st0" d="M32.03,241.9h44.23c1.38,0,2.32,1.42,1.77,2.69L55.91,296c-0.67,1.55-2.87,1.55-3.54,0l-22.11-51.41
	C29.71,243.31,30.65,241.9,32.03,241.9z"/>
</svg>
