<svg width="848" height="418" viewBox="0 0 848 418" fill="none" xmlns="http://www.w3.org/2000/svg">
<g filter="url(#filter0_d_991_45249)">
<path d="M35.4998 -13C17.5431 15.7308 44.9062 66.6393 61.6402 87.7117C81.4888 112.706 106.859 131.825 129.433 154.041C150.879 175.146 174.425 189.9 199.239 206.738C245.734 238.288 300.272 275.898 358.703 255.41C388.789 244.86 415.704 224.053 437.748 201.34C453.871 184.729 462.296 166.979 464.28 144.16C465.488 130.268 466.645 116.268 458.059 104.82C449.956 94.0162 438.582 85.8619 426.404 80.0267C392.218 63.6462 353.207 66.029 316.435 66.029C292.389 66.029 269.602 67.1992 250.197 83.2288C229.884 100.009 219.594 118.586 211.955 143.794C193.694 204.057 213.558 263.915 251.661 311.766C264.278 327.61 276.974 339.339 294.112 350.1C310.759 360.553 327.414 363.962 346.077 369.038C371.098 375.844 396.483 379.045 421.829 383.951C435.48 386.593 450.599 391.206 464.646 390.446C474.499 389.914 486.526 382.185 495.386 378.187C518.014 367.977 539.8 354.326 560.709 341.043C603.469 313.878 638.073 277.91 675.709 244.523C691.422 230.584 708.401 215.475 726.119 204.176C745.499 191.818 766.333 176.261 788.331 168.862C818.774 158.622 851.324 159.896 882.93 159.896" stroke="#EFCE1E" stroke-width="7" stroke-linecap="round" shape-rendering="crispEdges"/>
</g>
<defs>
<filter id="filter0_d_991_45249" x="0.121094" y="-42.5005" width="912.309" height="462.53" filterUnits="userSpaceOnUse" color-interpolation-filters="sRGB">
<feFlood flood-opacity="0" result="BackgroundImageFix"/>
<feColorMatrix in="SourceAlpha" type="matrix" values="0 0 0 0 0 0 0 0 0 0 0 0 0 0 0 0 0 0 127 0" result="hardAlpha"/>
<feOffset/>
<feGaussianBlur stdDeviation="13"/>
<feComposite in2="hardAlpha" operator="out"/>
<feColorMatrix type="matrix" values="0 0 0 0 0.913725 0 0 0 0 0.294118 0 0 0 0 0.160784 0 0 0 1 0"/>
<feBlend mode="normal" in2="BackgroundImageFix" result="effect1_dropShadow_991_45249"/>
<feBlend mode="normal" in="SourceGraphic" in2="effect1_dropShadow_991_45249" result="shape"/>
</filter>
</defs>
</svg>
